<svg xmlns="http://www.w3.org/2000/svg" width="40" height="40" viewBox="0 0 40 40">
  <defs>
    <style>
      .cls-1 {
        fill: #a6d864;
        fill-rule: evenodd;
      }
    </style>
  </defs>
  <path id="android_icon" class="cls-1" d="M1285,800a3,3,0,0,1-3-3V787a3,3,0,0,1,6,0v10A3,3,0,0,1,1285,800Zm-7,2h-1v5.5a2.5,2.5,0,0,1-5,0V802h-4v5.5a2.5,2.5,0,0,1-5,0V802h-1a2,2,0,0,1-2-2V784h20v16A2,2,0,0,1,1278,802Zm2-20h-20a9.991,9.991,0,0,1,3.77-7.815l-1.6-1.6a1,1,0,0,1,1.42-1.414l1.91,1.909a9.917,9.917,0,0,1,9.04.018l1.82-1.814a0.961,0.961,0,0,1,1.36,1.357l-1.52,1.519A9.982,9.982,0,0,1,1280,782Zm-14-5a1,1,0,1,0,1,1A1,1,0,0,0,1266,777Zm8,2a1,1,0,1,0-1-1A1,1,0,0,0,1274,779Zm-19,21a3,3,0,0,1-3-3V787a3,3,0,0,1,6,0v10A3,3,0,0,1,1255,800Z" transform="translate(-1250 -770.438)"/>
</svg>
