<?xml version="1.0" encoding="utf-8"?>
<!-- Generator: Adobe Illustrator 16.0.0, SVG Export Plug-In . SVG Version: 6.00 Build 0)  -->
<!DOCTYPE svg PUBLIC "-//W3C//DTD SVG 1.1//EN" "http://www.w3.org/Graphics/SVG/1.1/DTD/svg11.dtd">
<svg version="1.1" id="Layer_1" xmlns="http://www.w3.org/2000/svg" xmlns:xlink="http://www.w3.org/1999/xlink" x="0px" y="0px"
	 width="20px" height="20px" viewBox="0 0 20 20" enable-background="new 0 0 20 20" xml:space="preserve">
<path fill="#8F95A3" d="M13.016,8.352h-1.162L11.3,11.648h1.162c0.939,0,1.827-0.738,1.979-1.645
	C14.594,9.093,13.955,8.352,13.016,8.352z"/>
<path fill="#8F95A3" d="M19.414,8.601l-8.031-8.033c-0.772-0.772-2.025-0.772-2.797,0L0.553,8.601c-0.772,0.773-0.772,2.025,0,2.798
	l8.032,8.032c0.386,0.386,0.893,0.58,1.398,0.58c0.506,0,1.012-0.193,1.399-0.58l8.031-8.032
	C20.186,10.626,20.186,9.374,19.414,8.601z M9.766,7.427l-0.864,5.146c-0.02,0.115-0.129,0.209-0.244,0.209H7.941
	c-0.115,0-0.193-0.094-0.174-0.209l0.341-2.028H5.831L5.49,12.573c-0.02,0.115-0.129,0.209-0.244,0.209H4.53
	c-0.116,0-0.193-0.094-0.174-0.209l0.865-5.146C5.24,7.312,5.349,7.218,5.465,7.218h0.716c0.115,0,0.193,0.094,0.174,0.209
	L6.021,9.41h2.278l0.333-1.983c0.02-0.116,0.129-0.209,0.244-0.209h0.716C9.708,7.218,9.786,7.312,9.766,7.427z M15.575,10.003
	c-0.257,1.532-1.739,2.779-3.304,2.779h-2.086c-0.116,0-0.193-0.094-0.174-0.209l0.864-5.146c0.02-0.116,0.128-0.209,0.244-0.209
	h2.086C14.771,7.218,15.833,8.467,15.575,10.003z"/>
</svg>
