<?xml version="1.0" encoding="UTF-8"?>
<svg width="13px" height="20px" viewBox="0 0 13 20" version="1.1" xmlns="http://www.w3.org/2000/svg" xmlns:xlink="http://www.w3.org/1999/xlink">
    <title>0695966C-7FF7-467A-9E49-CA7B257278E8</title>
    <g id="Page-1" stroke="none" stroke-width="1" fill="none" fill-rule="evenodd">
        <g id="pro" transform="translate(-709.000000, -1475.000000)" fill="#F26739">
            <g id="Footer" transform="translate(0.000000, 1455.000000)">
                <g id="container" transform="translate(488.833333, 20.000000)">
                    <path d="M231,0 C232.104569,-2.02906125e-16 233,0.8954305 233,2 L233,18 C233,19.1045695 232.104569,20 231,20 L223,20 C221.895431,20 221,19.1045695 221,18 L221,2 C221,0.8954305 221.895431,2.02906125e-16 223,0 L231,0 Z M231,3 L223,3 C222.447715,3 222,3.44771525 222,4 L222,4 L222,16 C222,16.5522847 222.447715,17 223,17 L223,17 L231,17 C231.552285,17 232,16.5522847 232,16 L232,16 L232,4 C232,3.44771525 231.552285,3 231,3 L231,3 Z M225.5,1 L228.5,1 C228.776142,1 229,1.22385763 229,1.5 C229,1.77614237 228.776142,2 228.5,2 L225.5,2 C225.223858,2 225,1.77614237 225,1.5 C225,1.22385763 225.223858,1 225.5,1 Z" id="mobile_app_icon"></path>
                </g>
            </g>
        </g>
    </g>
</svg>