<?xml version="1.0" encoding="utf-8"?>
<!DOCTYPE svg PUBLIC "-//W3C//DTD SVG 1.1//EN" "http://www.w3.org/Graphics/SVG/1.1/DTD/svg11.dtd">
<svg version="1.1" id="Layer_1" xmlns="http://www.w3.org/2000/svg" xmlns:xlink="http://www.w3.org/1999/xlink" x="0px" y="0px"
	 width="61px" height="39.052px" viewBox="0 0 61 39.052" enable-background="new 0 0 61 39.052" xml:space="preserve">
<path fill-rule="evenodd" clip-rule="evenodd" fill="#C52129" d="M5.25,39.052c-2.761,0-5-2.239-5-5v-19c0-2.761,2.239-5,5-5V39.052
	z"/>
<path fill-rule="evenodd" clip-rule="evenodd" fill="#EE3443" d="M5.25,0.5h51c2.761,0,5,2.239,5,5v19c0,2.761-2.239,5-5,5h-51
	c-2.761,0-5,1.503-5,5v-29C0.25,2.739,2.489,0.5,5.25,0.5z"/>
<path fill="#FFFFFF" d="M16.426,17.657c1.947,0,3.492-0.497,4.635-1.49c1.143-0.994,1.714-2.303,1.714-3.928
	c0-1.617-0.571-2.926-1.714-3.928c-1.143-1.001-2.688-1.502-4.635-1.502H9.761v16.505h3.823v-5.657H16.426z M13.584,9.756h2.842
	c0.827,0,1.457,0.235,1.889,0.703c0.432,0.469,0.648,1.07,0.648,1.802c0,0.718-0.216,1.306-0.648,1.763
	c-0.432,0.457-1.062,0.686-1.889,0.686h-2.842V9.756z"/>
<path fill="#FFFFFF" d="M31.367,16.988c0.797,0,1.402,0.208,1.815,0.624c0.413,0.416,0.62,1.017,0.62,1.802v0.998
	c0,0.506,0.047,1.058,0.141,1.655c0.094,0.597,0.291,1.013,0.592,1.247h3.924v-0.227c-0.316-0.234-0.538-0.627-0.665-1.179
	c-0.128-0.552-0.192-1.043-0.192-1.474v-1.043c0-0.998-0.22-1.831-0.66-2.5c-0.44-0.669-1.163-1.146-2.171-1.434
	c0.872-0.385,1.532-0.884,1.979-1.496c0.447-0.612,0.671-1.345,0.671-2.199c0-1.534-0.556-2.743-1.669-3.627
	c-1.113-0.884-2.62-1.326-4.522-1.326h-6.315v16.505h3.823v-6.325H31.367z M28.74,9.756h2.492c0.759,0,1.348,0.206,1.765,0.618
	c0.417,0.412,0.626,0.954,0.626,1.627c0,0.657-0.203,1.162-0.609,1.513c-0.406,0.351-0.992,0.527-1.759,0.527H28.74V9.756z"/>
<path fill="#FFFFFF" d="M53.74,13.576c0-2.025-0.647-3.699-1.94-5.022c-1.293-1.322-2.97-1.984-5.029-1.984
	c-2.075,0-3.757,0.662-5.046,1.984c-1.29,1.323-1.934,2.997-1.934,5.022v2.97c0,2.033,0.646,3.709,1.939,5.028
	c1.293,1.319,2.981,1.978,5.063,1.978c2.067,0,3.742-0.659,5.024-1.978c1.282-1.319,1.923-2.994,1.923-5.028V13.576z M49.94,16.546
	c0,1.194-0.274,2.169-0.823,2.925c-0.549,0.756-1.323,1.134-2.323,1.134c-1.03,0-1.821-0.378-2.374-1.134
	c-0.552-0.756-0.829-1.73-0.829-2.925v-2.993c0-1.186,0.272-2.156,0.818-2.908c0.545-0.752,1.333-1.128,2.363-1.128
	c1.007,0,1.787,0.378,2.34,1.134c0.552,0.756,0.829,1.723,0.829,2.902V16.546z"/>
</svg>
