<?xml version="1.0" encoding="utf-8"?>
<!-- Generator: Adobe Illustrator 16.0.0, SVG Export Plug-In . SVG Version: 6.00 Build 0)  -->
<!DOCTYPE svg PUBLIC "-//W3C//DTD SVG 1.1//EN" "http://www.w3.org/Graphics/SVG/1.1/DTD/svg11.dtd">
<svg version="1.1" id="Layer_1" xmlns="http://www.w3.org/2000/svg" xmlns:xlink="http://www.w3.org/1999/xlink" x="0px" y="0px"
	 width="19.999px" height="19.97px" viewBox="0 0 19.999 19.97" enable-background="new 0 0 19.999 19.97" xml:space="preserve">
<path fill="#8F95A3" d="M11.067,9.573c0.231-0.118,0.489-0.18,0.755-0.18c0.442,0,0.858,0.171,1.172,0.482l0.675-0.672
	c1.67,0.583,3.603,0.21,4.938-1.12c1.124-1.119,1.567-2.659,1.331-4.11c-0.026-0.16-0.14-0.292-0.294-0.341
	s-0.325-0.009-0.439,0.105l-1.002,0.999c-0.816,0.812-2.14,0.812-2.956,0c-0.816-0.813-0.816-2.131,0-2.944l1.002-0.999
	c0.115-0.114,0.156-0.283,0.106-0.438c-0.05-0.154-0.183-0.267-0.343-0.293c-1.457-0.236-3.003,0.206-4.126,1.325
	c-1.355,1.35-1.72,3.311-1.097,4.992L9.324,7.836L11.067,9.573z"/>
<path fill="#8F95A3" d="M8.4,12.215l-1.736-1.729l-6.072,6.047c-0.789,0.787-0.789,2.062,0,2.848c0.79,0.786,2.07,0.786,2.859,0
	l5.234-5.213C8.157,13.638,8.062,12.84,8.4,12.215z"/>
<path fill="#8F95A3" d="M12.272,10.6c-0.124-0.124-0.287-0.186-0.45-0.186s-0.325,0.062-0.45,0.186l-0.362,0.361l-6.457-6.43
	L4.856,4.23c0.275-0.274,0.241-0.728-0.072-0.958L2.149,1.34C1.896,1.154,1.545,1.181,1.323,1.402L0.204,2.516
	c-0.222,0.221-0.249,0.571-0.062,0.823l1.94,2.624C2.312,6.275,2.768,6.31,3.043,6.036l0.302-0.301l6.457,6.431l-0.388,0.386
	c-0.249,0.248-0.249,0.648,0,0.896l5.956,5.932c0.79,0.786,2.07,0.786,2.859,0c0.79-0.786,0.79-2.061,0-2.848L12.272,10.6z"/>
</svg>
