<?xml version="1.0" encoding="utf-8"?>
<!-- Generator: Adobe Illustrator 22.1.0, SVG Export Plug-In . SVG Version: 6.00 Build 0)  -->
<svg version="1.1" id="Шар_1" xmlns="http://www.w3.org/2000/svg" xmlns:xlink="http://www.w3.org/1999/xlink" x="0px" y="0px"
	 viewBox="0 0 129 116" style="enable-background:new 0 0 129 116;" xml:space="preserve">
<style type="text/css">
	.st0{fill:#FF0000;}
</style>
<g id="layer1">
	<path id="path2417" class="st0" d="M59.5,109.5c-2.8-3.1-9.6-9.1-15.3-13.4c-16.7-12.7-19-14.5-25.8-20.7
		C5.8,63.8,0.5,52.2,0.5,36.5c0-7.7,0.5-10.6,2.7-15.2c3.6-7.7,9-13.4,15.9-16.9c4.9-2.5,7.3-3.6,15.4-3.6c8.5,0,10.3,0.9,15.3,3.7
		C55.8,7.9,62.1,15,63.4,20.1l0.8,3.1l2-4.3c11.1-24.4,46.7-24,59.1,0.6c3.9,7.8,4.4,24.5,0.9,33.9c-4.5,12.3-13.1,21.6-32.8,35.9
		C80.4,98.8,65.8,113,64.7,115C63.6,117.3,64.7,115.3,59.5,109.5z"/>
	<g id="g2221" transform="translate(129.28571,-64.285714)">
	</g>
</g>
</svg>
