<?xml version="1.0" encoding="utf-8"?>
<svg version="1.1" id="Шар_1" xmlns="http://www.w3.org/2000/svg" xmlns:xlink="http://www.w3.org/1999/xlink" x="0px" y="0px"
	 viewBox="0 0 980 694" style="enable-background:new 0 0 980 694;" xml:space="preserve">
<style type="text/css">
	.st0{fill:#FFFFFF;stroke:#1C00FF;stroke-miterlimit:10;}
	.st1{fill:#848484;stroke:#1C00FF;stroke-miterlimit:10;}
	.st2{fill:#848484;}
</style>
<rect x="30" y="191" class="st0" width="920" height="312"/>
<path class="st1" d="M976.8,83.2c-8.4-35.5-36.2-63.3-71.7-71.7C886.9,7.1,92,7.3,74,11.6C39.9,19.8,11.5,48.5,3.3,83.1
	C-1,102-1,606.8,3.3,625.6c8.4,35.5,36.2,63.3,71.7,71.7c11,2.6,62.9,3,415.1,3s404.1-0.4,415.1-2.9c35.1-8.4,63.3-36.7,71.7-71.7
	C981.1,606.8,981.1,102,976.8,83.2z M331.6,482.4c-20.4,0.2-32.7-0.2-33.5-1.6c-0.6-1-5.5-16.9-11-35.3l-9.6-33.3h-38.4h-38.4
	l-9.4,35.3l-9.4,35.3H150c-24.7,0-31.7-0.6-31.1-2.6c0.6-1.2,18.2-58.8,39.2-127.8c21.2-69,39.2-128.4,40.3-131.9l2.2-6.3l40.2,0.4
	l40.2,0.6l41.5,133.3l41.5,133.3L331.6,482.4z M630.5,393.6c-21.7,66.6-81.9,96.8-184.1,92.3c-15.9-0.8-32.9-1.8-37.6-2.5l-8.8-1.2
	V350.1c0-103.9,0.6-132.3,2.5-132.9c7.4-2.9,41.1-4.5,79.7-3.9c37,0.4,46.6,1.2,60.3,4.7c49.2,12.5,81.5,43.9,91.7,89.6
	C639.1,330.1,637.4,372.4,630.5,393.6z M843.6,439.4c-10.6,21.2-34.9,37.8-65,44.5c-22.3,4.9-64.3,2.9-87.6-3.9
	c-26.8-8-25.3-4.9-18.2-33.5c3.3-13.5,7.1-24.5,8-24.5s7.3,2.2,13.9,4.9c16.7,6.7,46,11.6,59.7,9.8c21.9-2.7,32.7-10.8,34.5-25.9
	c2-15.9-10.4-27.4-41.1-39c-38.4-14.3-61.1-31.4-71.3-53.1c-4.3-9.6-5.1-13.9-5.1-28c0.2-23.3,5.5-36.5,21.2-51.9
	c22.3-22.1,42.9-28.6,86.4-27.6c25.5,0.6,31.5,1.4,45.6,5.9c8.8,2.9,16.1,6.1,16.1,7.3c0,2.1-12,45.5-12.7,46.4
	c-0.4,0.4-8-1.8-17-4.5c-22.5-7.3-51.5-8-63.7-1.6C736.7,270.3,733,276,733,286c0,14.1,9.4,21.6,46,36.1
	c35.3,13.9,56,29.2,65.4,47.8C854.6,390.4,854.4,418.5,843.6,439.4z"/>
<path class="st2" d="M525.7,265c-8.6-3.3-16.3-4.5-33.7-4.9c-12.3-0.4-24.1-0.2-25.9,0.4c-3.3,1-3.5,6.9-3.5,89.2v88h19.2
	c59.7,0,90.9-31.4,91.3-92.1C573.3,303.4,558,277.6,525.7,265z"/>
<path class="st2" d="M244.4,283.2l-6.3-24.3l-3.5,15.5c-3.1,12.7-20.4,78-23.9,89.2c-1,3.3,1.4,3.5,28.6,3.5
	c23.1,0,29.6-0.6,28.8-2.5C265.4,357.1,249.7,303.8,244.4,283.2z"/>
</svg>
