<?xml version="1.0" encoding="utf-8"?>
<!-- Generator: Adobe Illustrator 22.1.0, SVG Export Plug-In . SVG Version: 6.00 Build 0)  -->
<svg version="1.1" id="Layer_1" xmlns="http://www.w3.org/2000/svg" xmlns:xlink="http://www.w3.org/1999/xlink" x="0px" y="0px"
	 viewBox="0 0 18 18" style="enable-background:new 0 0 18 18;" xml:space="preserve">
<style type="text/css">
	.st0{fill:#8F95A3;}
</style>
<path class="st0" d="M16,2v14H2V2H16L16,2z M16,0H2C0.9,0,0,0.9,0,2v14c0,1.1,0.9,2,2,2h14c1.1,0,2-0.9,2-2V2C18,0.9,17.1,0,16,0
	L16,0L16,0z"/>
<path class="st0" d="M13.7,4.3 M13.7,3H4.3C3.6,3,3,3.6,3,4.3v9.3C3,14.4,3.6,15,4.3,15h9.3c0.7,0,1.3-0.6,1.3-1.3V4.3
	C15,3.6,14.4,3,13.7,3L13.7,3L13.7,3z"/>
</svg>
