<?xml version="1.0" encoding="utf-8"?>
<!-- Generator: Adobe Illustrator 16.0.0, SVG Export Plug-In . SVG Version: 6.00 Build 0)  -->
<!DOCTYPE svg PUBLIC "-//W3C//DTD SVG 1.1//EN" "http://www.w3.org/Graphics/SVG/1.1/DTD/svg11.dtd">
<svg version="1.1" id="Layer_1" xmlns="http://www.w3.org/2000/svg" xmlns:xlink="http://www.w3.org/1999/xlink" x="0px" y="0px"
	 viewBox="0 0 150 150" enable-background="new 0 0 150 150" xml:space="preserve">
<path fill="#D3D4DA" d="M75,1C34.196,1,1,34.196,1,75c0,40.805,33.196,74,74,74c40.805,0,74-33.195,74-74C149,34.196,115.805,1,75,1
	z M75,141c-18.129,0-34.572-7.348-46.512-19.221c-4.768-4.74-8.815-10.204-11.967-16.209C11.721,96.425,9,86.023,9,75
	C9,38.607,38.607,9,75,9c17.262,0,32.994,6.664,44.768,17.551c6.104,5.644,11.146,12.422,14.778,19.999
	C138.682,55.169,141,64.819,141,75C141,111.393,111.393,141,75,141z M47.066,139.199c0.12,0.053,0.24,0.105,0.361,0.158
	C47.307,139.305,47.187,139.251,47.066,139.199z"/>
<path fill="#D3D4DA" d="M50.249,51c4.418,0,8,3.582,8,8s-3.582,8-8,8s-8-3.582-8-8S45.831,51,50.249,51z"/>
<path fill="#D3D4DA" d="M99.75,51c4.418,0,8,3.582,8,8s-3.582,8-8,8s-8-3.582-8-8S95.332,51,99.75,51z"/>
<path fill="#D3D4DA" d="M116.052,41.065L88.5,39.326l0.505-7.984l27.553,1.741L116.052,41.065z"/>
<path fill="#D3D4DA" d="M31.458,35.71l0.647,6.786l27.485-2.623l-0.76-7.964l-24.797,2.366l-2.688,0.257L31.458,35.71z"/>
<path fill="#D3D4DA" d="M41.874,93.407c-0.613-1.089-1.18-2.22-1.682-3.362l-7.324,3.219c0.609,1.387,1.294,2.758,2.038,4.073
	c8.511,15.095,25.204,24.271,42.507,23.373c17.19-0.892,32.782-11.663,39.718-27.446l-7.324-3.22
	c-5.729,13.04-18.606,21.94-32.807,22.677C62.707,113.462,48.907,105.88,41.874,93.407z"/>
</svg>
