<?xml version="1.0" encoding="utf-8"?>
<!-- Generator: Adobe Illustrator 18.0.0, SVG Export Plug-In . SVG Version: 6.00 Build 0)  -->
<!DOCTYPE svg PUBLIC "-//W3C//DTD SVG 1.1//EN" "http://www.w3.org/Graphics/SVG/1.1/DTD/svg11.dtd">
<svg version="1.1" id="Layer_1" xmlns="http://www.w3.org/2000/svg" xmlns:xlink="http://www.w3.org/1999/xlink" x="0px" y="0px"
	 viewBox="0 0 12 11" enable-background="new 0 0 12 11" xml:space="preserve">
<path fill="#8E95A2" d="M0,11h2V4H0V11L0,11z M12,5.1C12,4.5,11.5,4,10.9,4H7.5L8,1.3V1.2c0-0.2-0.1-0.4-0.2-0.6L7.2,0L3.3,3.6
	C3.1,3.8,3,4.1,3,4.4v5.5C3,10.5,3.5,11,4.1,11h5.2c0.4,0,0.8-0.3,1-0.7l1.6-3.9c0.1-0.1,0.1-0.3,0.1-0.4L12,5.1L12,5.1
	C12,5.1,12,5.1,12,5.1L12,5.1z"/>
</svg>
