<?xml version="1.0" encoding="utf-8"?>
<svg version="1.1" id="Layer_1" xmlns="http://www.w3.org/2000/svg" xmlns:xlink="http://www.w3.org/1999/xlink" x="0px" y="0px"
	 viewBox="0 0 16 18" style="enable-background:new 0 0 16 18;" xml:space="preserve">
<style type="text/css">
	.st0{fill:#56585E;}
</style>
<path class="st0" d="M15,12.2c-1.1-0.9-2-3.1-2-6c0-2.2-1.3-4.1-3.3-4.8C9.6,0.6,8.8,0,8,0C7.2,0,6.4,0.6,6.3,1.4C4.3,2.1,3,4,3,6.2
	c0,2.9-0.9,5.1-2,6c-0.6,0.5-1,1.3-1,2.1C0,15.2,0.8,16,1.7,16h4.6c0,0.9,0.8,2,1.7,2s1.7-1.1,1.7-2h4.6c0.9,0,1.7-0.8,1.7-1.7
	C16,13.5,15.6,12.8,15,12.2z"/>
</svg>
