<?xml version="1.0" encoding="utf-8"?>
<!-- Generator: Adobe Illustrator 16.0.0, SVG Export Plug-In . SVG Version: 6.00 Build 0)  -->
<!DOCTYPE svg PUBLIC "-//W3C//DTD SVG 1.1//EN" "http://www.w3.org/Graphics/SVG/1.1/DTD/svg11.dtd">
<svg version="1.1" id="Layer_1" xmlns="http://www.w3.org/2000/svg" xmlns:xlink="http://www.w3.org/1999/xlink" x="0px" y="0px"
	 width="150px" height="150px" viewBox="0 0 150 150" enable-background="new 0 0 150 150" xml:space="preserve">
<path fill="#D3D4DA" d="M75,1C34.196,1,1,34.196,1,75s33.196,74,74,74s74-33.196,74-74S115.804,1,75,1z M75,141
	c-18.129,0-34.572-7.348-46.512-19.22c-4.768-4.741-8.815-10.205-11.967-16.21C11.721,96.425,9,86.024,9,75C9,38.607,38.607,9,75,9
	c17.262,0,32.994,6.664,44.767,17.551c6.104,5.644,11.145,12.422,14.779,19.999C138.681,55.169,141,64.819,141,75
	C141,111.393,111.393,141,75,141z M47.066,139.199c0.12,0.053,0.24,0.106,0.361,0.158C47.307,139.304,47.187,139.251,47.066,139.199
	z"/>
<path fill="#D3D4DA" d="M50.249,51c4.418,0,8,3.582,8,8c0,4.418-3.582,8-8,8s-8-3.582-8-8C42.249,54.582,45.831,51,50.249,51z"/>
<path fill="#D3D4DA" d="M99.75,51c4.418,0,8,3.582,8,8c0,4.418-3.582,8-8,8c-4.418,0-8-3.582-8-8C91.75,54.582,95.332,51,99.75,51z"
	/>
<path fill="#D3D4DA" d="M115.608,46.36L90.274,35.389l3.179-7.341l25.334,10.972L115.608,46.36z"/>
<path fill="#D3D4DA" d="M31.68,40.104l2.709,6.255l25.336-10.972l-3.179-7.341l-22.858,9.899l-2.478,1.073L31.68,40.104z"/>
<path fill="#D3D4DA" d="M108.125,102.393c0.614,1.088,1.179,2.219,1.682,3.362l7.324-3.218c-0.609-1.386-1.294-2.757-2.038-4.074
	c-8.511-15.095-25.204-24.271-42.507-23.373c-17.192,0.89-32.782,11.663-39.718,27.447l7.324,3.219
	c5.73-13.04,18.608-21.941,32.807-22.676C87.292,82.338,101.092,89.92,108.125,102.393z"/>
</svg>
