<svg xmlns="http://www.w3.org/2000/svg" xmlns:xlink="http://www.w3.org/1999/xlink" viewBox="0 0 533.76 533.76"><defs><style>.cls-1{fill:url(#linear-gradient);}.cls-2{fill:#fff;}.cls-3{fill:#d3e6f2;}.cls-4{fill:#b6d0e5;}</style><linearGradient id="linear-gradient" x1="266.88" x2="266.88" y2="531.82" gradientTransform="translate(266.88 -110.55) rotate(45)" gradientUnits="userSpaceOnUse"><stop offset="0" stop-color="#42bde9"/><stop offset="1" stop-color="#23a8dd"/></linearGradient></defs><title>Asset 1</title><g id="Layer_2" data-name="Layer 2"><g id="Layer_1-2" data-name="Layer 1"><circle class="cls-1" cx="266.88" cy="266.88" r="266.88" transform="translate(-110.55 266.88) rotate(-45)"/><path class="cls-2" d="M396.74,153.52,349.07,393.85s-6.66,16.67-25,8.67l-110-84.33-40-19.34-67.33-22.66s-10.33-3.67-11.33-11.67,11.66-12.33,11.66-12.33l267.67-105S396.74,137.52,396.74,153.52Z"/><path class="cls-3" d="M205.62,391.16s-3.21-.31-7.21-13-24.34-79.34-24.34-79.34L335.74,196.19s9.33-5.67,9,0c0,0,1.67,1-3.33,5.66s-127,114.34-127,114.34"/><path class="cls-4" d="M256.25,350.52l-43.51,39.67s-3.4,2.58-7.12,1L214,317.47"/></g></g></svg>